# xmcd
#
# Track frame offsets: 
#        150
#        11469
#        22694
#        36096
#        47588
#        58485
#        73994
#        84469
#        100956
#        109952
#        121668
#        146922
#        166388
#        178936
#        190711
#        213574
#        224482
#        234888
#        245262
#        256397
#
# Disc length: 3615 seconds
#
# Revision: 0
# Processed by: cddbd v1.5.2PL0 Copyright (c) Steve Scherf et al.
# Submitted via: ExactAudioCopy v1.0b3
#
DISCID=1f0e1d14
DTITLE=The Yardbirds - Yard Ornaments
DYEAR=2011
DGENRE=Rock
TTITLE0=For Your Love
TTITLE1=Heart Full Of Sou
TTITLE2=Still I'm Sad
TTITLE3=I'm Not Talking
TTITLE4=Shapes Of Things
TTITLE5=The Train Kept A Rollin'
TTITLE6=I Wish You Would
TTITLE7=I Ain't Done Wrong
TTITLE8=I Ain't Got You
TTITLE9=I'm A Man
TTITLE10=Smokestack Lightning
TTITLE11=New York City Blues
TTITLE12=Good Morning Little Schoolgirls
TTITLE13=I'm A Man(Live)
TTITLE14=Here 'Tis
TTITLE15=Evil Hearted You
TTITLE16=Putty(In Your Hands)
TTITLE17=A Certain Girl
TTITLE18=Got To Hurry
TTITLE19=You're A Better Man Than I
EXTD=
EXTT0=
EXTT1=
EXTT2=
EXTT3=
EXTT4=
EXTT5=
EXTT6=
EXTT7=
EXTT8=
EXTT9=
EXTT10=
EXTT11=
EXTT12=
EXTT13=
EXTT14=
EXTT15=
EXTT16=
EXTT17=
EXTT18=
EXTT19=
PLAYORDER=
